<?xml version="1.0" standalone="no"?><!DOCTYPE svg PUBLIC "-//W3C//DTD SVG 1.1//EN" "http://www.w3.org/Graphics/SVG/1.1/DTD/svg11.dtd"><svg t="1658465778131" class="icon" viewBox="0 0 1024 1024" version="1.1" xmlns="http://www.w3.org/2000/svg" p-id="5162" xmlns:xlink="http://www.w3.org/1999/xlink" width="200" height="200"><defs><style type="text/css">@font-face { font-family: feedback-iconfont; src: url("//at.alicdn.com/t/font_1031158_u69w8yhxdu.woff2?t=1630033759944") format("woff2"), url("//at.alicdn.com/t/font_1031158_u69w8yhxdu.woff?t=1630033759944") format("woff"), url("//at.alicdn.com/t/font_1031158_u69w8yhxdu.ttf?t=1630033759944") format("truetype"); }
</style></defs><path d="M512 392.96A119.04 119.04 0 1 1 392.96 512 119.04 119.04 0 0 1 512 392.96m0-76.8A195.84 195.84 0 1 0 707.84 512 195.84 195.84 0 0 0 512 316.16z" fill="#5A607F" p-id="5163"></path><path d="M489.6 406.4a83.2 83.2 0 1 1-83.2 83.2 83.2 83.2 0 0 1 83.2-83.2m0-76.8a160 160 0 1 0 160 160 160 160 0 0 0-160-160z" fill="#5A607F" p-id="5164"></path><path d="M517.12 222.72c239.36 0 430.08 208 430.08 289.28s-186.24 289.28-430.08 289.28h-10.24C263.04 801.28 76.8 595.84 76.8 512s192-289.28 430.08-289.28h9.6m0-76.8h-9.6C227.2 145.92 0 384 0 512s227.2 366.08 506.88 366.08h9.6C796.8 878.08 1024 640 1024 512s-227.2-366.08-506.88-366.08z" fill="#5A607F" p-id="5165"></path></svg>